<svg width="800" height="800" viewBox="0 0 800 800" fill="none" xmlns="http://www.w3.org/2000/svg">
<circle cx="400" cy="400" r="400" fill="#585858" fill-opacity="0.06"/>
<path fill-rule="evenodd" clip-rule="evenodd" d="M376.812 0H423.086C489.793 5.13634 543.421 23.3407 591.005 47.6073C514.659 127.264 436.635 205.296 356.986 281.649C333.229 250.877 307.27 226.185 251.214 231.409C196.433 236.516 155.149 285.731 154.695 339.843C153.95 428.652 255.779 479.264 330.544 429.758C350.185 416.76 368.206 394.735 386.071 376.869C439.332 323.59 493.024 269.076 546.047 215.534C589.817 254.959 631.695 299.882 675.616 343.809C680.205 348.398 694.052 359.136 694.127 360.994C694.296 365.018 665.56 390.904 662.393 394.054C630.111 426.34 597.358 459.347 564.552 489.269C541.791 441.399 464.033 424.424 413.828 454.887C383.159 473.493 363.542 503.373 362.261 544.802C360.497 601.808 401.099 651.372 457.464 657.19C535.601 665.261 567.341 609.431 605.539 571.24C669.881 506.896 736.692 439.827 799.905 379.519C802.368 510.664 756.839 605.256 692.8 671.743C628.661 738.323 543.369 791.591 423.081 800H376.807C264.624 790.147 178.184 745.492 116.346 683.64C54.5075 621.794 9.79981 535.391 0 423.143V376.857C6.49827 268.697 57.4538 176.022 117.673 116.366C181.457 53.1687 266.621 8.71198 376.812 0Z" fill="#DB8500"/>
</svg>
